<?xml version="1.0" encoding="UTF-8"?>
<!-- Generator: visioncortex VTracer 0.6.4 -->
<svg version="1.1" xmlns="http://www.w3.org/2000/svg" width="294" height="432">
<path d="M0 0 C7.251 -0.078 14.502 -0.129 21.753 -0.165 C24.208 -0.18 26.663 -0.2 29.118 -0.226 C52.581 -0.471 74.921 2.09 97.887 6.677 C110.461 9.168 122.298 10.397 134 4 C135.351 2.685 136.691 1.357 138 0 C140.438 -0.5 140.438 -0.5 143 0 C145.625 1.875 145.625 1.875 148 4 C148.99 4.66 149.98 5.32 151 6 C151.217 6.99 151.217 6.99 151.438 8 C151.623 8.66 151.809 9.32 152 10 C153.316 10.699 154.65 11.367 156 12 C156.33 12.99 156.66 13.98 157 15 C157.66 15.33 158.32 15.66 159 16 C159.33 16.99 159.66 17.98 160 19 C161.312 20.354 162.646 21.687 164 23 C166.152 26.228 166.201 27.284 166 31 C166.99 31.33 167.98 31.66 169 32 C174.271 41.565 172.736 54.347 170.5 64.656 C170.042 66.802 169.777 68.882 169.562 71.062 C169.377 72.032 169.191 73.001 169 74 C167.515 74.99 167.515 74.99 166 76 C165.67 76.66 165.34 77.32 165 78 C164.175 78.784 163.35 79.567 162.5 80.375 C159.619 83.25 159.619 83.25 159 87 C159.681 87.65 159.681 87.65 160.375 88.312 C162.801 90.832 162.515 93.608 163 97 C163.979 98.02 164.979 99.021 166 100 C166.562 102.562 166.562 102.562 167 106 C167.343 107.794 167.698 109.585 168.062 111.375 C168.239 112.249 168.416 113.123 168.598 114.023 C168.73 114.676 168.863 115.328 169 116 C169.66 116 170.32 116 171 116 C171.33 119.96 171.66 123.92 172 128 C172.66 128 173.32 128 174 128 C175.382 135.43 177.11 145.323 173 152 C172.67 152 172.34 152 172 152 C170.013 158.686 168.57 165.043 168 172 C168.66 172 169.32 172 170 172 C170.135 172.548 170.271 173.096 170.41 173.66 C172.144 180.047 174.651 185.82 177.574 191.733 C179.251 195.17 180.268 198.266 181 202 C181.66 202.33 182.32 202.66 183 203 C183.633 205.066 183.633 205.066 184.125 207.562 C184.293 208.389 184.46 209.215 184.633 210.066 C184.754 210.704 184.875 211.343 185 212 C185.66 212 186.32 212 187 212 C187.205 212.626 187.41 213.253 187.621 213.898 C187.891 214.716 188.16 215.533 188.438 216.375 C188.838 217.593 188.838 217.593 189.246 218.836 C190.209 221.6 191.355 223.532 193 226 C194.32 230.54 194.114 235.128 194.062 239.812 C194.058 240.601 194.053 241.389 194.049 242.201 C194.037 244.134 194.019 246.067 194 248 C187.283 250.627 180.58 253.229 173.707 255.422 C171.916 255.985 171.916 255.985 170 257 C170.342 258.038 170.342 258.038 170.691 259.098 C172.477 265.174 173.326 270.764 173.062 277.062 C173.012 278.312 172.962 279.561 172.91 280.848 C172 284 172 284 168.934 285.934 C167.481 286.461 167.481 286.461 166 287 C166 287.66 166 288.32 166 289 C165.34 289 164.68 289 164 289 C164.33 289.99 164.66 290.98 165 292 C166.187 296.086 166.149 299.763 166 304 C165.361 304.227 164.721 304.454 164.062 304.688 C161.74 305.827 161.74 305.827 161.438 308.438 C161.293 309.283 161.149 310.129 161 311 C160.5 311.383 160 311.766 159.484 312.161 C157.112 315.101 157.694 318.389 157.812 321.992 C157.824 322.775 157.835 323.558 157.847 324.365 C157.896 327.713 157.98 331.059 158.062 334.407 C158.116 336.852 158.152 339.297 158.188 341.742 C158.225 342.871 158.225 342.871 158.263 344.022 C158.326 348.553 157.829 351.411 155 355 C154.34 355.33 153.68 355.66 153 356 C152.67 356.99 152.34 357.98 152 359 C150.25 360.027 150.25 360.027 148 361 C147.196 361.414 146.391 361.828 145.562 362.254 C144.294 362.902 144.294 362.902 143 363.562 C142.154 363.997 141.309 364.431 140.438 364.879 C129.173 370.06 114.933 366.784 103.335 364.335 C95.116 362.693 86.976 362.047 79.438 366.25 C76.324 368.431 75.034 370.277 74 374 C73.34 374.33 72.68 374.66 72 375 C71.732 375.804 71.464 376.609 71.188 377.438 C67 390 67 390 63 392 C62.857 392.859 62.714 393.717 62.566 394.602 C61.918 398.489 60.541 401.81 58.938 405.375 C58.656 406.016 58.374 406.656 58.084 407.316 C57.395 408.88 56.699 410.441 56 412 C55.34 412 54.68 412 54 412 C53.917 412.784 53.835 413.567 53.75 414.375 C52.764 419.14 51.176 423.641 49 428 C48.34 428.33 47.68 428.66 47 429 C46.67 429.99 46.34 430.98 46 432 C45.34 432 44.68 432 44 432 C42.824 432.062 42.824 432.062 41.625 432.125 C38.818 431.991 37.412 431.367 35 430 C34.01 429.67 33.02 429.34 32 429 C31.67 428.01 31.34 427.02 31 426 C29.535 424.679 29.535 424.679 27.677 423.504 C26.625 422.798 26.625 422.798 25.552 422.078 C24.788 421.578 24.025 421.078 23.238 420.562 C22.455 420.041 21.671 419.52 20.864 418.983 C19.203 417.879 17.539 416.78 15.873 415.685 C13.335 414.015 10.804 412.333 8.275 410.648 C6.659 409.577 5.043 408.507 3.426 407.438 C2.296 406.687 2.296 406.687 1.143 405.922 C-3.705 402.74 -8.465 399.845 -14 398 C-14.495 396.515 -14.495 396.515 -15 395 C-17.248 393.352 -17.248 393.352 -19.938 391.875 C-20.833 391.357 -21.729 390.839 -22.652 390.305 C-24.086 389.508 -25.533 388.734 -27 388 C-27.33 387.34 -27.66 386.68 -28 386 C-30.527 385.344 -30.527 385.344 -33 385 C-33.495 383.515 -33.495 383.515 -34 382 C-35.454 380.693 -35.454 380.693 -37.273 379.555 C-37.933 379.118 -38.593 378.681 -39.273 378.23 C-39.967 377.783 -40.66 377.336 -41.375 376.875 C-42.061 376.42 -42.747 375.965 -43.453 375.496 C-46.323 373.615 -48.723 372.092 -52 371 C-52.567 370.428 -53.134 369.855 -53.719 369.266 C-56.701 366.304 -60.023 364.093 -63.5 361.75 C-64.555 361.03 -64.555 361.03 -65.631 360.295 C-68.958 358.029 -72.302 355.793 -75.684 353.609 C-76.757 352.913 -77.831 352.217 -78.938 351.5 C-79.895 350.892 -80.853 350.283 -81.84 349.656 C-84 348 -84 348 -85 345 C-84.258 342.766 -84.258 342.766 -83.125 340.25 C-81.367 336.109 -80.58 332.472 -80 328 C-79.113 325.275 -78.073 322.66 -77 320 C-76.34 320 -75.68 320 -75 320 C-74.856 319.257 -74.711 318.515 -74.562 317.75 C-74.377 316.842 -74.191 315.935 -74 315 C-73.856 314.278 -73.711 313.556 -73.562 312.812 C-73 311 -73 311 -71 309 C-66.556 299.142 -67.665 287.849 -67.812 277.312 C-67.828 275.436 -67.841 273.559 -67.854 271.682 C-67.886 267.121 -67.938 262.561 -68 258 C-68.66 258 -69.32 258 -70 258 C-69.67 256.02 -69.34 254.04 -69 252 C-69.99 252 -70.98 252 -72 252 C-73.009 249.754 -74.007 247.504 -75 245.25 C-75.286 244.616 -75.572 243.982 -75.867 243.328 C-77.36 239.916 -78 237.792 -78 234 C-78.454 233.546 -78.907 233.093 -79.375 232.625 C-82.671 229.329 -83.16 224.439 -84 220 C-84.776 216.925 -84.776 216.925 -87 215 C-87.125 211.375 -87.125 211.375 -87 208 C-87.66 208 -88.32 208 -89 208 C-89.115 206.711 -89.229 205.422 -89.348 204.094 C-89.907 199.073 -91.06 194.351 -92.438 189.5 C-92.655 188.69 -92.872 187.881 -93.096 187.047 C-93.664 185.012 -94.325 183.002 -95 181 C-95.66 180.67 -96.32 180.34 -97 180 C-97.448 177.312 -97.762 174.709 -98 172 C-98.081 171.099 -98.162 170.198 -98.246 169.27 C-98.409 167.45 -98.567 165.629 -98.719 163.809 C-98.914 161.86 -99.187 159.918 -99.52 157.988 C-100.353 152.283 -100.184 146.503 -100.188 140.75 C-100.2 139.586 -100.212 138.422 -100.225 137.223 C-100.236 130.725 -99.806 124.671 -98.431 118.313 C-97.878 115.737 -97.878 115.737 -98 112 C-98 109 -98 109 -96 106 C-95.364 104.093 -94.757 102.177 -94.188 100.25 C-90.765 90.882 -90.765 90.882 -87 89 C-86.629 87.855 -86.629 87.855 -86.25 86.688 C-84.563 83.06 -82.376 82.126 -79 80 C-77.671 78.852 -76.36 77.684 -75.062 76.5 C-66.643 69 -66.643 69 -61 69 C-61 60.42 -61 51.84 -61 43 C-60.34 42.67 -59.68 42.34 -59 42 C-58.641 40.339 -58.311 38.671 -58 37 C-56.421 33.211 -56.421 33.211 -54 32 C-53.67 31.34 -53.34 30.68 -53 30 C-52.34 29.34 -51.68 28.68 -51 28 C-50.505 26.515 -50.505 26.515 -50 25 C-48.691 24.287 -47.352 23.629 -46 23 C-44.403 21.81 -42.821 20.599 -41.25 19.375 C-28.524 10.1 -15.253 5.448 0 2 C0 1.34 0 0.68 0 0 Z M-1 15 C-2.676 15.307 -2.676 15.307 -4.387 15.621 C-16.596 18.245 -30.436 23.627 -39 33 C-39.353 33.884 -39.706 34.769 -40.07 35.68 C-40.377 36.445 -40.684 37.211 -41 38 C-41.99 38.33 -42.98 38.66 -44 39 C-44.083 39.701 -44.165 40.403 -44.25 41.125 C-45 44 -45 44 -47.062 46.438 C-51.66 52.94 -49.199 63.544 -48 70.875 C-47.678 72.586 -47.35 74.295 -47 76 C-47.771 76.026 -48.542 76.052 -49.336 76.078 C-50.339 76.135 -51.342 76.192 -52.375 76.25 C-53.373 76.296 -54.37 76.343 -55.398 76.391 C-56.686 76.692 -56.686 76.692 -58 77 C-59.277 78.954 -59.277 78.954 -60 81 C-60.928 81.217 -60.928 81.217 -61.875 81.438 C-65.06 82.28 -66.055 84.406 -68 87 C-69.299 88.268 -69.299 88.268 -70.625 89.562 C-72.842 91.838 -73.696 93.195 -75 96 C-75.996 98.065 -76.996 100.127 -78 102.188 C-78.773 103.787 -78.773 103.787 -79.562 105.418 C-81 108 -81 108 -83 109 C-83 110.65 -83 112.3 -83 114 C-83.99 114.495 -83.99 114.495 -85 115 C-90.796 134.094 -88.09 154.823 -84 174 C-83.34 174 -82.68 174 -82 174 C-82.065 175.986 -82.13 177.971 -82.195 179.957 C-82.133 182.314 -82.133 182.314 -80 185 C-78.04 188.516 -77.315 191.858 -76.562 195.781 C-76.077 198.036 -76.077 198.036 -74.945 200.078 C-73.632 202.748 -73.867 205.071 -74 208 C-73.01 208.33 -72.02 208.66 -71 209 C-71.093 210.702 -71.093 210.702 -71.188 212.438 C-71.214 217.338 -69.76 221.474 -68 226 C-67.34 225.67 -66.68 225.34 -66 225 C-65.184 226.915 -64.372 228.832 -63.562 230.75 C-63.11 231.817 -62.658 232.885 -62.191 233.984 C-61.253 236.359 -60.565 238.527 -60 241 C-59.514 242.546 -59.014 244.088 -58.5 245.625 C-58.242 246.401 -57.984 247.177 -57.719 247.977 C-57.035 250.031 -57.035 250.031 -56 252 C-52.767 267.004 -50.072 286.117 -55 301 C-55.66 301.99 -56.32 302.98 -57 304 C-57.524 305.409 -57.999 306.836 -58.438 308.273 C-58.82 309.511 -58.82 309.511 -59.211 310.773 C-59.602 312.061 -59.602 312.061 -60 313.375 C-62.781 322.462 -62.781 322.462 -64.184 325.91 C-65.26 328.666 -65.062 331.063 -65 334 C-65.375 336.312 -65.375 336.312 -66 338 C-66.66 338.33 -67.32 338.66 -68 339 C-67.67 339.99 -67.34 340.98 -67 342 C-67.66 342.33 -68.32 342.66 -69 343 C-64.167 346.418 -59.331 349.832 -54.493 353.243 C-52.889 354.373 -51.286 355.504 -49.683 356.636 C-38.079 364.827 -26.367 372.848 -14.599 380.8 C-5.848 386.718 2.837 392.725 11.454 398.837 C17.412 403.027 23.484 406.742 30 410 C30.619 410.701 31.238 411.402 31.875 412.125 C33.786 414.213 33.786 414.213 36.062 414.062 C38.767 412.579 39.559 410.694 41 408 C41.536 407.381 42.072 406.762 42.625 406.125 C44.521 403.195 44.67 400.43 45 397 C45.66 397 46.32 397 47 397 C47.33 395.02 47.66 393.04 48 391 C48.66 391 49.32 391 50 391 C51.032 388.591 51.939 386.401 52.332 383.801 C53.24 379.995 54.922 376.816 56.75 373.375 C57.085 372.707 57.42 372.04 57.766 371.352 C59.953 367.209 61.711 365.155 66 363 C67.468 361.872 68.908 360.706 70.312 359.5 C71.01 358.912 71.707 358.324 72.426 357.719 C74.338 356.02 74.338 356.02 74 353 C70.877 350.918 68.004 349.775 64.5 348.438 C47.364 341.701 30.2 334.412 17.586 320.531 C15.969 318.75 15.969 318.75 13 318 C12.856 317.402 12.711 316.804 12.562 316.188 C12.159 313.827 12.159 313.827 10.062 312.125 C7.578 309.565 6.942 307.406 6 304 C5.505 302.515 5.505 302.515 5 301 C4.34 301 3.68 301 3 301 C2.876 299.886 2.752 298.772 2.625 297.625 C2.015 292.695 1.025 287.858 0 283 C-0.66 283 -1.32 283 -2 283 C-2.217 281.36 -2.217 281.36 -2.438 279.688 C-2.883 276.069 -2.883 276.069 -4 273 C-4.732 269.826 -5 267.303 -5 264 C-2.595 262.797 -1.05 262.899 1.625 262.938 C2.442 262.947 3.26 262.956 4.102 262.965 C5.041 262.982 5.041 262.982 6 263 C6.309 263.804 6.619 264.609 6.938 265.438 C7.763 267.891 7.763 267.891 9 269 C9.225 270.995 9.448 272.992 9.621 274.992 C9.923 277.307 9.923 277.307 12 280 C12.343 281.331 12.676 282.664 13 284 C13.278 284.552 13.557 285.103 13.844 285.672 C15.405 288.815 16.696 292.057 18 295.312 C18.26 295.951 18.521 296.59 18.789 297.248 C20.055 300.404 21.117 303.435 22 306.73 C25.436 317.966 38.459 324.502 48.148 329.666 C63.335 337.406 79.617 343.715 95.75 349.188 C96.97 349.606 96.97 349.606 98.215 350.033 C110.705 354.102 126.167 354.61 139 352 C141.18 350.346 141.18 350.346 142 348 C142 346.68 142 345.36 142 344 C142.66 344 143.32 344 144 344 C145.593 340.813 145.178 337.354 145.211 333.852 C145.239 332.19 145.268 330.529 145.297 328.867 C145.338 326.245 145.375 323.623 145.401 321 C145.429 318.471 145.475 315.943 145.523 313.414 C145.528 312.24 145.528 312.24 145.533 311.043 C145.63 306.762 145.901 304.076 149 301 C149.557 300.526 150.114 300.051 150.688 299.562 C152.519 297.382 152.224 295.758 152 293 C151.01 293 150.02 293 149 293 C146.667 293 144.333 293 142 293 C142 292.67 142 292.34 142 292 C140.742 291.691 139.484 291.381 138.188 291.062 C135.738 290.46 133.397 289.799 131 289 C130.67 287.02 130.34 285.04 130 283 C130.99 283.33 131.98 283.66 133 284 C133.66 283.34 134.32 282.68 135 282 C137.602 281.367 137.602 281.367 140.625 280.875 C141.628 280.707 142.631 280.54 143.664 280.367 C144.435 280.246 145.206 280.125 146 280 C146 279.34 146 278.68 146 278 C149.63 278 153.26 278 157 278 C157.774 271.811 158.321 266.946 156.48 260.992 C155.608 257.375 155.846 253.696 156 250 C156.88 249.809 156.88 249.809 157.777 249.613 C160.605 248.833 163.039 247.459 165.633 246.113 C169.241 244.416 172.997 243.188 176.777 241.93 C179.164 241.215 179.164 241.215 180 239 C180.07 237.46 180.085 235.917 180.062 234.375 C180.049 233.149 180.049 233.149 180.035 231.898 C180.024 231.272 180.012 230.645 180 230 C179.34 230 178.68 230 178 230 C176.667 226 175.333 222 174 218 C173.567 217.443 173.134 216.886 172.688 216.312 C168.726 210.884 166.558 205.69 166 199 C165.34 199.33 164.68 199.66 164 200 C163.691 198.907 163.381 197.814 163.062 196.688 C162.417 194.446 161.738 192.213 161 190 C160.856 189.402 160.711 188.804 160.562 188.188 C159.848 185.408 158.926 182.715 158 180 C157.34 180 156.68 180 156 180 C154.734 176.133 154.888 172.268 154.938 168.25 C154.942 167.553 154.947 166.855 154.951 166.137 C154.963 164.424 154.981 162.712 155 161 C155.66 161 156.32 161 157 161 C160.049 147.878 160.985 136.549 158.188 123.25 C158.022 122.45 157.857 121.651 157.687 120.827 C157.146 118.333 157.146 118.333 156 115 C155.01 114.67 154.02 114.34 153 114 C153 111.36 153 108.72 153 106 C152.34 105.67 151.68 105.34 151 105 C150.375 102.438 150.375 102.438 150 100 C149.34 100 148.68 100 148 100 C147.951 99.362 147.902 98.724 147.852 98.066 C147.739 96.827 147.739 96.827 147.625 95.562 C147.521 94.327 147.521 94.327 147.414 93.066 C147.277 92.384 147.141 91.703 147 91 C146.34 90.67 145.68 90.34 145 90 C144.667 88.333 144.333 86.667 144 85 C143.34 84.67 142.68 84.34 142 84 C142 81.69 142 79.38 142 77 C142.907 76.918 143.815 76.835 144.75 76.75 C149.749 75.596 151.326 72.936 154.25 68.875 C156.173 66.276 156.173 66.276 156 64 C156.99 63.67 157.98 63.34 159 63 C159.333 54.433 159.116 47.049 156 39 C155.34 39 154.68 39 154 39 C153.182 37.587 152.371 36.169 151.562 34.75 C151.11 33.961 150.658 33.172 150.191 32.359 C149.103 30.204 148.557 28.329 148 26 C147.021 24.979 146.02 23.979 145 23 C144.317 21.675 143.649 20.342 143 19 C140.793 16.793 140.039 16.352 137 16 C134.246 16.708 134.246 16.708 131.438 17.875 C130.487 18.244 129.537 18.612 128.559 18.992 C127.292 19.491 127.292 19.491 126 20 C113.201 24.266 97.083 20.184 84.25 17.625 C80.944 16.986 77.636 16.355 74.328 15.727 C73.528 15.575 72.729 15.423 71.905 15.266 C59.727 12.979 47.79 11.633 35.375 11.688 C34.079 11.691 32.783 11.694 31.448 11.698 C20.428 11.821 9.807 12.887 -1 15 Z M163 25 C164 27 164 27 164 27 Z M169 38 C170 40 170 40 170 40 Z M170 41 C171 43 171 43 171 43 Z M-47 44 C-46 46 -46 46 -46 46 Z M-93 99 C-92 101 -92 101 -92 101 Z M164 100 C165 102 165 102 165 102 Z M165 103 C166 106 166 106 166 106 Z M-97 109 C-96 111 -96 111 -96 111 Z M153 109 C154 111 154 111 154 111 Z M173 136 C173 139.63 173 143.26 173 147 C173.33 147 173.66 147 174 147 C174 143.37 174 139.74 174 136 C173.67 136 173.34 136 173 136 Z M155 162 C155 166.62 155 171.24 155 176 C155.33 176 155.66 176 156 176 C156 171.38 156 166.76 156 162 C155.67 162 155.34 162 155 162 Z M-97 173 C-96 176 -96 176 -96 176 Z M-83 175 C-82 177 -82 177 -82 177 Z M156 176 C157 179 157 179 157 179 Z M169 177 C170 179 170 179 170 179 Z M171 182 C172 184 172 184 172 184 Z M-80 186 C-79 188 -79 188 -79 188 Z M-79 189 C-78 192 -78 192 -78 192 Z M175 191 C176 193 176 193 176 193 Z M-78 193 C-77 195 -77 195 -77 195 Z M176 193 C177 195 177 195 177 195 Z M-77 196 C-76 198 -76 198 -76 198 Z M-75 203 C-74 205 -74 205 -74 205 Z M170 210 C171 212 171 212 171 212 Z M-86 212 C-85 214 -85 214 -85 214 Z M-72 212 C-71 214 -71 214 -71 214 Z M187 217 C188 219 188 219 188 219 Z M-83 221 C-82 223 -82 223 -82 223 Z M177 225 C178 227 178 227 178 227 Z M-81 226 C-80 228 -80 228 -80 228 Z M191 226 C192 228 192 228 192 228 Z M178 227 C179 229 179 229 179 229 Z M180 232 C180 233.65 180 235.3 180 237 C180.33 237 180.66 237 181 237 C181 235.35 181 233.7 181 232 C180.67 232 180.34 232 180 232 Z M168 258 C169 262 169 262 169 262 Z M169 262 C170 265 170 265 170 265 Z M-67 263 C-67 264.98 -67 266.96 -67 269 C-66.67 269 -66.34 269 -66 269 C-66 267.02 -66 265.04 -66 263 C-66.33 263 -66.66 263 -67 263 Z M170 266 C171 269 171 269 171 269 Z M171 269 C171 270.65 171 272.3 171 274 C171.33 274 171.66 274 172 274 C172 272.35 172 270.7 172 269 C171.67 269 171.34 269 171 269 Z M-66 270 C-66 274.29 -66 278.58 -66 283 C-65.67 283 -65.34 283 -65 283 C-65 278.71 -65 274.42 -65 270 C-65.33 270 -65.66 270 -66 270 Z M158 273 C159 275 159 275 159 275 Z M-3 276 C-2 279 -2 279 -2 279 Z M147 278 C151 279 151 279 151 279 Z M-2 279 C-1 282 -1 282 -1 282 Z M12 281 C13 284 13 284 13 284 Z M-67 283 C-67 285.64 -67 288.28 -67 291 C-66.67 291 -66.34 291 -66 291 C-66 288.36 -66 285.72 -66 283 C-66.33 283 -66.66 283 -67 283 Z M131 284 C132 288 132 288 132 288 Z M14 288 C15 290 15 290 15 290 Z M142 291 C142 291.33 142 291.66 142 292 C144.97 292 147.94 292 151 292 C151 291.67 151 291.34 151 291 C148.03 291 145.06 291 142 291 Z M2 293 C3 296 3 296 3 296 Z M16 294 C17 296 17 296 17 296 Z M-55 297 C-54 300 -54 300 -54 300 Z M8 308 C9 310 9 310 9 310 Z M-77 323 C-76 325 -76 325 -76 325 Z M-79 328 C-78 331 -78 331 -78 331 Z M-67 334 C-66 336 -66 336 -66 336 Z M74 353 C74.66 353.66 75.32 354.32 76 355 C76 354.34 76 353.68 76 353 C75.34 353 74.68 353 74 353 Z M114 353 C114 353.33 114 353.66 114 354 C115.65 354 117.3 354 119 354 C119 353.67 119 353.34 119 353 C117.35 353 115.7 353 114 353 Z M119 354 C119 354.33 119 354.66 119 355 C122.96 355 126.92 355 131 355 C131 354.67 131 354.34 131 354 C127.04 354 123.08 354 119 354 Z M60 368 C61 370 61 370 61 370 Z M52 383 C53 385 53 385 53 385 Z M65 385 C66 387 66 387 66 387 Z M57 403 C58 405 58 405 58 405 Z M49 421 C50 423 50 423 50 423 Z M48 423 C49 425 49 425 49 425 Z " fill="#C6C6C5" transform="translate(100,0)"/>
<path d="M0 0 C2.016 0.005 4.032 0 6.048 -0.006 C7.339 -0.005 8.629 -0.004 9.958 -0.002 C11.703 -0.001 11.703 -0.001 13.482 0.001 C17.011 0.135 20.404 0.572 23.888 1.13 C23.888 1.46 23.888 1.79 23.888 2.13 C8.708 2.13 -6.472 2.13 -22.112 2.13 C-22.112 1.8 -22.112 1.47 -22.112 1.13 C-14.726 0.108 -7.451 -0.024 0 0 Z " fill="#000000" transform="translate(133.11181640625,12.86962890625)"/>
<path d="M0 0 C0.99 0 1.98 0 3 0 C1.387 5.571 -0.886 11.094 -4 16 C-4.99 16.33 -5.98 16.66 -7 17 C-6.38 12.767 -4.895 9.477 -2.938 5.688 C-2.39 4.619 -1.842 3.55 -1.277 2.449 C-0.645 1.237 -0.645 1.237 0 0 Z M-4 10 C-3 12 -3 12 -3 12 Z " fill="#0D0E0D" transform="translate(169,375)"/>
<path d="M0 0 C9.57 0.66 19.14 1.32 29 2 C29 2.33 29 2.66 29 3 C25.854 3.059 22.709 3.094 19.562 3.125 C18.245 3.15 18.245 3.15 16.9 3.176 C10.952 3.22 5.762 2.489 0 1 C0 0.67 0 0.34 0 0 Z " fill="#000000" transform="translate(194,21)"/>
<path d="M0 0 C0.66 0.33 1.32 0.66 2 1 C2 6.61 2 12.22 2 18 C-1.202 13.197 -1.354 7.529 -0.562 1.875 C-0.377 1.256 -0.191 0.637 0 0 Z " fill="#292929" transform="translate(256,249)"/>
<path d="M0 0 C0.66 0.33 1.32 0.66 2 1 C0.572 2.509 -0.868 4.007 -2.312 5.5 C-3.113 6.335 -3.914 7.171 -4.738 8.031 C-7 10 -7 10 -10 10 C-8.589 6.471 -7.369 5.585 -4 4 C-2.629 2.705 -1.287 1.378 0 0 Z " fill="#303030" transform="translate(25,76)"/>
<path d="M0 0 C7.26 0.33 14.52 0.66 22 1 C22 1.33 22 1.66 22 2 C19.271 2.027 16.542 2.047 13.812 2.062 C13.044 2.071 12.275 2.079 11.482 2.088 C7.515 2.105 3.874 1.986 0 1 C0 0.67 0 0.34 0 0 Z " fill="#000000" transform="translate(212,367)"/>
<path d="M0 0 C0.99 0 1.98 0 3 0 C3 3.3 3 6.6 3 10 C1.68 10.33 0.36 10.66 -1 11 C-0.928 10.374 -0.856 9.747 -0.781 9.102 C-0.688 8.284 -0.596 7.467 -0.5 6.625 C-0.407 5.813 -0.314 5.001 -0.219 4.164 C0.034 2.031 0.034 2.031 0 0 Z " fill="#1A1919" transform="translate(263,294)"/>
<path d="M0 0 C0.33 0 0.66 0 1 0 C1 6.27 1 12.54 1 19 C-0.32 19.33 -1.64 19.66 -3 20 C-2.67 19.34 -2.34 18.68 -2 18 C-1.34 18 -0.68 18 0 18 C0 12.06 0 6.12 0 0 Z " fill="#000000" transform="translate(37,49)"/>
<path d="M0 0 C0.33 0 0.66 0 1 0 C2.009 4.156 2.102 8.044 2.062 12.312 C2.053 13.567 2.044 14.821 2.035 16.113 C2.018 17.542 2.018 17.542 2 19 C1.67 19 1.34 19 1 19 C0.67 12.73 0.34 6.46 0 0 Z " fill="#000000" transform="translate(48,264)"/>
<path d="M0 0 C0.33 0 0.66 0 1 0 C1.956 3.998 2.104 7.708 2.062 11.812 C2.053 12.974 2.044 14.135 2.035 15.332 C2.024 16.212 2.012 17.093 2 18 C1.67 18 1.34 18 1 18 C0.67 12.06 0.34 6.12 0 0 Z " fill="#000000" transform="translate(257,128)"/>
<path d="M0 0 C0.99 0 1.98 0 3 0 C4.125 2.812 4.125 2.812 5 6 C4.01 7.485 4.01 7.485 3 9 C2.01 6.03 1.02 3.06 0 0 Z " fill="#080808" transform="translate(251,33)"/>
<path d="M0 0 C0.66 0.33 1.32 0.66 2 1 C0.416 4.167 -0.453 5.733 -3.688 7.312 C-4.451 7.539 -5.214 7.766 -6 8 C-4.557 4.634 -2.667 2.49 0 0 Z " fill="#2B2B2B" transform="translate(33,83)"/>
<path d="M0 0 C2.712 1.613 5.374 3.249 8 5 C7.67 5.66 7.34 6.32 7 7 C4.133 5.715 2.024 4.429 0 2 C0 1.34 0 0.68 0 0 Z " fill="#1F201F" transform="translate(243,1)"/>
<path d="M0 0 C0.33 0 0.66 0 1 0 C1 4.95 1 9.9 1 15 C0.67 15 0.34 15 0 15 C0 10.05 0 5.1 0 0 Z " fill="#000000" transform="translate(259,328)"/>
<path d="M0 0 C0.33 0 0.66 0 1 0 C1 4.95 1 9.9 1 15 C0.67 15 0.34 15 0 15 C0 10.05 0 5.1 0 0 Z " fill="#000000" transform="translate(243,327)"/>
<path d="M0 0 C0.33 0 0.66 0 1 0 C1 4.62 1 9.24 1 14 C0.67 14 0.34 14 0 14 C0 9.38 0 4.76 0 0 Z " fill="#000000" transform="translate(258,314)"/>
<path d="M0 0 C0.33 0 0.66 0 1 0 C0.143 8.571 0.143 8.571 -2 12 C-1 3.429 -1 3.429 0 0 Z " fill="#000000" transform="translate(31,293)"/>
<path d="M0 0 C0.33 0 0.66 0 1 0 C1 4.62 1 9.24 1 14 C0.67 14 0.34 14 0 14 C0 9.38 0 4.76 0 0 Z " fill="#000000" transform="translate(13,133)"/>
<path d="M0 0 C0.33 0 0.66 0 1 0 C1 4.29 1 8.58 1 13 C0.67 13 0.34 13 0 13 C0 8.71 0 4.42 0 0 Z " fill="#000000" transform="translate(257,49)"/>
<path d="M0 0 C3.96 0.33 7.92 0.66 12 1 C12 1.33 12 1.66 12 2 C7.839 2.082 4.053 1.982 0 1 C0 0.67 0 0.34 0 0 Z " fill="#000000" transform="translate(200,6)"/>
<path d="M0 0 C0.33 0 0.66 0 1 0 C1 3.96 1 7.92 1 12 C0.67 12 0.34 12 0 12 C0 8.04 0 4.08 0 0 Z " fill="#000000" transform="translate(52,51)"/>
<path d="M0 0 C4.602 -0.177 6.784 -0.108 11 2 C7.37 1.67 3.74 1.34 0 1 C0 0.67 0 0.34 0 0 Z " fill="#000000" transform="translate(165,16)"/>
<path d="M0 0 C0.33 0 0.66 0 1 0 C0.67 3.3 0.34 6.6 0 10 C-0.33 10 -0.66 10 -1 10 C-0.67 6.7 -0.34 3.4 0 0 Z " fill="#000000" transform="translate(15,119)"/>
<path d="M0 0 C-3.473 1.158 -6.361 1.069 -10 1 C-10 0.67 -10 0.34 -10 0 C-6.337 -0.749 -3.576 -1.238 0 0 Z " fill="#000000" transform="translate(227,7)"/>
<path d="M0 0 C2.97 0 5.94 0 9 0 C9 0.33 9 0.66 9 1 C6.03 1 3.06 1 0 1 C0 0.67 0 0.34 0 0 Z " fill="#000000" transform="translate(97,260)"/>
<path d="M0 0 C2.97 0 5.94 0 9 0 C9 0.33 9 0.66 9 1 C6.03 1 3.06 1 0 1 C0 0.67 0 0.34 0 0 Z " fill="#000000" transform="translate(42,78)"/>
<path d="M0 0 C2 3 2 3 1.625 5.188 C1.316 6.085 1.316 6.085 1 7 C0.67 4.69 0.34 2.38 0 0 Z " fill="#000000" transform="translate(255,264)"/>
<path d="M0 0 C0.598 0.206 1.196 0.412 1.812 0.625 C-0.498 0.955 -2.808 1.285 -5.188 1.625 C-2.188 -0.375 -2.188 -0.375 0 0 Z " fill="#000000" transform="translate(279.1875,254.375)"/>
<path d="M0 0 C2 3 2 3 1.625 5.188 C1.316 6.085 1.316 6.085 1 7 C0.67 4.69 0.34 2.38 0 0 Z " fill="#000000" transform="translate(5,185)"/>
<path d="M0 0 C0.33 0 0.66 0 1 0 C1 2.64 1 5.28 1 8 C0.67 8 0.34 8 0 8 C0 5.36 0 2.72 0 0 Z " fill="#000000" transform="translate(14,150)"/>
<path d="M0 0 C0.33 0 0.66 0 1 0 C1 2.64 1 5.28 1 8 C0.67 8 0.34 8 0 8 C0 5.36 0 2.72 0 0 Z " fill="#000000" transform="translate(272,56)"/>
<path d="M0 0 C2.64 0 5.28 0 8 0 C8 0.33 8 0.66 8 1 C5.36 1 2.72 1 0 1 C0 0.67 0 0.34 0 0 Z " fill="#000000" transform="translate(165,0)"/>
<path d="M0 0 C0.99 1.485 0.99 1.485 2 3 C1.67 3.99 1.34 4.98 1 6 C0.67 4.02 0.34 2.04 0 0 Z " fill="#000000" transform="translate(99,287)"/>
<path d="M0 0 C0.33 0 0.66 0 1 0 C1 2.31 1 4.62 1 7 C0.67 7 0.34 7 0 7 C0 4.69 0 2.38 0 0 Z " fill="#000000" transform="translate(48,283)"/>
<path d="M0 0 C0.33 0 0.66 0 1 0 C1 2.31 1 4.62 1 7 C0.67 7 0.34 7 0 7 C0 4.69 0 2.38 0 0 Z " fill="#000000" transform="translate(273,275)"/>
<path d="M0 0 C0.33 0 0.66 0 1 0 C1 2.31 1 4.62 1 7 C0.67 7 0.34 7 0 7 C0 4.69 0 2.38 0 0 Z " fill="#000000" transform="translate(269,163)"/>
<path d="M0 0 C0.33 0 0.66 0 1 0 C1 2.31 1 4.62 1 7 C0.67 7 0.34 7 0 7 C0 4.69 0 2.38 0 0 Z " fill="#000000" transform="translate(272,44)"/>
<path d="M0 0 C0.66 0.66 1.32 1.32 2 2 C1.625 4.125 1.625 4.125 1 6 C0.67 4.02 0.34 2.04 0 0 Z " fill="#000000" transform="translate(255,42)"/>
<path d="M0 0 C0.99 0.33 1.98 0.66 3 1 C1.02 1.33 -0.96 1.66 -3 2 C-2.01 1.34 -1.02 0.68 0 0 Z " fill="#000000" transform="translate(226,21)"/>
<path d="M0 0 C2.125 0.375 2.125 0.375 4 1 C2.02 1.33 0.04 1.66 -2 2 C-1.34 1.34 -0.68 0.68 0 0 Z " fill="#000000" transform="translate(87,19)"/>
<path d="M0 0 C2.31 0 4.62 0 7 0 C7 0.33 7 0.66 7 1 C4.69 1 2.38 1 0 1 C0 0.67 0 0.34 0 0 Z " fill="#000000" transform="translate(157,15)"/>
<path d="M0 0 C2.31 0 4.62 0 7 0 C7 0.33 7 0.66 7 1 C4.69 1 2.38 1 0 1 C0 0.67 0 0.34 0 0 Z " fill="#000000" transform="translate(104,15)"/>
<path d="M0 0 C1.98 0 3.96 0 6 0 C6 0.33 6 0.66 6 1 C4.02 1 2.04 1 0 1 C0 0.67 0 0.34 0 0 Z " fill="#000000" transform="translate(197,364)"/>
<path d="M0 0 C2.475 0.495 2.475 0.495 5 1 C4.01 1.33 3.02 1.66 2 2 C1.34 1.34 0.68 0.68 0 0 Z " fill="#000000" transform="translate(203,349)"/>
<path d="M0 0 C2.475 0.495 2.475 0.495 5 1 C4.01 1.33 3.02 1.66 2 2 C1.34 1.34 0.68 0.68 0 0 Z " fill="#000000" transform="translate(187,344)"/>
<path d="M0 0 C0.33 0.99 0.66 1.98 1 3 C0.34 3.66 -0.32 4.32 -1 5 C-0.67 3.35 -0.34 1.7 0 0 Z " fill="#000000" transform="translate(25,315)"/>
<path d="M0 0 C0.33 0.99 0.66 1.98 1 3 C0.34 3.66 -0.32 4.32 -1 5 C-0.67 3.35 -0.34 1.7 0 0 Z " fill="#000000" transform="translate(28,306)"/>
<path d="M0 0 C0.33 0 0.66 0 1 0 C1 1.98 1 3.96 1 6 C0.67 6 0.34 6 0 6 C0 4.02 0 2.04 0 0 Z " fill="#000000" transform="translate(47,290)"/>
<path d="M0 0 C0.99 0.33 1.98 0.66 3 1 C1.35 1.33 -0.3 1.66 -2 2 C-1.34 1.34 -0.68 0.68 0 0 Z " fill="#000000" transform="translate(270,241)"/>
<path d="M0 0 C0.33 0 0.66 0 1 0 C1 1.98 1 3.96 1 6 C0.67 6 0.34 6 0 6 C0 4.02 0 2.04 0 0 Z " fill="#000000" transform="translate(16,163)"/>
<path d="M0 0 C1.98 0 3.96 0 6 0 C6 0.33 6 0.66 6 1 C4.02 1 2.04 1 0 1 C0 0.67 0 0.34 0 0 Z " fill="#000000" transform="translate(177,18)"/>
<path d="M0 0 C1.98 0 3.96 0 6 0 C6 0.33 6 0.66 6 1 C4.02 1 2.04 1 0 1 C0 0.67 0 0.34 0 0 Z " fill="#000000" transform="translate(178,2)"/>
<path d="M0 0 C1.65 0 3.3 0 5 0 C5 0.33 5 0.66 5 1 C3.35 1 1.7 1 0 1 C0 0.67 0 0.34 0 0 Z " fill="#000000" transform="translate(206,366)"/>
<path d="M0 0 C1.65 0 3.3 0 5 0 C5 0.33 5 0.66 5 1 C3.35 1 1.7 1 0 1 C0 0.67 0 0.34 0 0 Z " fill="#000000" transform="translate(209,351)"/>
<path d="M0 0 C1.98 0.99 1.98 0.99 4 2 C2.68 1.67 1.36 1.34 0 1 C0 0.67 0 0.34 0 0 Z " fill="#000000" transform="translate(164,350)"/>
<path d="M0 0 C1.32 0.33 2.64 0.66 4 1 C3.01 1.495 3.01 1.495 2 2 C1.34 1.34 0.68 0.68 0 0 Z " fill="#000000" transform="translate(151,345)"/>
<path d="M0 0 C1.32 0.33 2.64 0.66 4 1 C3.01 1.495 3.01 1.495 2 2 C1.34 1.34 0.68 0.68 0 0 Z " fill="#000000" transform="translate(179,341)"/>
<path d="M0 0 C1.65 0 3.3 0 5 0 C5 0.33 5 0.66 5 1 C3.35 1 1.7 1 0 1 C0 0.67 0 0.34 0 0 Z " fill="#000000" transform="translate(235,279)"/>
<path d="M0 0 C0.33 0 0.66 0 1 0 C1 1.65 1 3.3 1 5 C0.67 5 0.34 5 0 5 C0 3.35 0 1.7 0 0 Z " fill="#000000" transform="translate(47,258)"/>
<path d="M0 0 C0.66 0.33 1.32 0.66 2 1 C0.68 1.33 -0.64 1.66 -2 2 C-1.34 1.34 -0.68 0.68 0 0 Z " fill="#000000" transform="translate(287,251)"/>
<path d="M0 0 C0.33 0 0.66 0 1 0 C1 1.65 1 3.3 1 5 C0.67 5 0.34 5 0 5 C0 3.35 0 1.7 0 0 Z " fill="#000000" transform="translate(1,167)"/>
<path d="M0 0 C0.33 0 0.66 0 1 0 C1 1.65 1 3.3 1 5 C0.67 5 0.34 5 0 5 C0 3.35 0 1.7 0 0 Z " fill="#000000" transform="translate(0,161)"/>
<path d="M0 0 C0.33 0 0.66 0 1 0 C1 1.65 1 3.3 1 5 C0.67 5 0.34 5 0 5 C0 3.35 0 1.7 0 0 Z " fill="#000000" transform="translate(15,158)"/>
<path d="M0 0 C0.33 0 0.66 0 1 0 C1 1.65 1 3.3 1 5 C0.67 5 0.34 5 0 5 C0 3.35 0 1.7 0 0 Z " fill="#000000" transform="translate(257,146)"/>
<path d="M0 0 C0.33 0 0.66 0 1 0 C1 1.65 1 3.3 1 5 C0.67 5 0.34 5 0 5 C0 3.35 0 1.7 0 0 Z " fill="#000000" transform="translate(272,123)"/>
<path d="M0 0 C0.33 0 0.66 0 1 0 C1 1.65 1 3.3 1 5 C0.67 5 0.34 5 0 5 C0 3.35 0 1.7 0 0 Z " fill="#000000" transform="translate(0,116)"/>
<path d="M0 0 C0.33 0 0.66 0 1 0 C1 1.65 1 3.3 1 5 C0.67 5 0.34 5 0 5 C0 3.35 0 1.7 0 0 Z " fill="#000000" transform="translate(54,68)"/>
<path d="M0 0 C0.33 0 0.66 0 1 0 C1 1.65 1 3.3 1 5 C0.67 5 0.34 5 0 5 C0 3.35 0 1.7 0 0 Z " fill="#000000" transform="translate(273,51)"/>
<path d="M0 0 C1.65 0 3.3 0 5 0 C5 0.33 5 0.66 5 1 C3.35 1 1.7 1 0 1 C0 0.67 0 0.34 0 0 Z " fill="#000000" transform="translate(183,19)"/>
<path d="M0 0 C1.65 0 3.3 0 5 0 C5 0.33 5 0.66 5 1 C3.35 1 1.7 1 0 1 C0 0.67 0 0.34 0 0 Z " fill="#000000" transform="translate(212,8)"/>
<path d="M0 0 C0.99 0.33 1.98 0.66 3 1 C1.68 1.33 0.36 1.66 -1 2 C-0.67 1.34 -0.34 0.68 0 0 Z " fill="#000000" transform="translate(78,6)"/>
<path d="M0 0 C1.65 0 3.3 0 5 0 C5 0.33 5 0.66 5 1 C3.35 1 1.7 1 0 1 C0 0.67 0 0.34 0 0 Z " fill="#000000" transform="translate(194,5)"/>
<path d="M0 0 C1.65 0 3.3 0 5 0 C5 0.33 5 0.66 5 1 C3.35 1 1.7 1 0 1 C0 0.67 0 0.34 0 0 Z " fill="#000000" transform="translate(185,3)"/>
<path d="M0 0 C1.65 0 3.3 0 5 0 C5 0.33 5 0.66 5 1 C3.35 1 1.7 1 0 1 C0 0.67 0 0.34 0 0 Z " fill="#000000" transform="translate(173,1)"/>
<path d="M0 0 C0.99 0.33 1.98 0.66 3 1 C2.01 1 1.02 1 0 1 C0 0.67 0 0.34 0 0 Z " fill="#000000" transform="translate(135,430)"/>
<path d="M0 0 C0.99 0.33 1.98 0.66 3 1 C2.01 1 1.02 1 0 1 C0 0.67 0 0.34 0 0 Z " fill="#000000" transform="translate(123,422)"/>
<path d="M0 0 C0.99 0.33 1.98 0.66 3 1 C2.01 1 1.02 1 0 1 C0 0.67 0 0.34 0 0 Z " fill="#000000" transform="translate(120,420)"/>
<path d="M0 0 C0.99 0.33 1.98 0.66 3 1 C2.01 1 1.02 1 0 1 C0 0.67 0 0.34 0 0 Z " fill="#000000" transform="translate(99,406)"/>
<path d="M0 0 C0.99 0.33 1.98 0.66 3 1 C2.01 1 1.02 1 0 1 C0 0.67 0 0.34 0 0 Z " fill="#000000" transform="translate(83,395)"/>
<path d="M0 0 C0.99 0.33 1.98 0.66 3 1 C2.01 1 1.02 1 0 1 C0 0.67 0 0.34 0 0 Z " fill="#000000" transform="translate(99,388)"/>
<path d="M0 0 C0.99 0.33 1.98 0.66 3 1 C2.01 1 1.02 1 0 1 C0 0.67 0 0.34 0 0 Z " fill="#000000" transform="translate(70,386)"/>
<path d="M0 0 C0.99 0.33 1.98 0.66 3 1 C2.01 1 1.02 1 0 1 C0 0.67 0 0.34 0 0 Z " fill="#000000" transform="translate(54,375)"/>
<path d="M0 0 C0.99 0.33 1.98 0.66 3 1 C2.01 1 1.02 1 0 1 C0 0.67 0 0.34 0 0 Z " fill="#000000" transform="translate(51,373)"/>
<path d="M0 0 C0.99 0.33 1.98 0.66 3 1 C2.01 1 1.02 1 0 1 C0 0.67 0 0.34 0 0 Z " fill="#000000" transform="translate(74,371)"/>
<path d="M0 0 C4 1 4 1 4 1 Z " fill="#000000" transform="translate(184,364)"/>
<path d="M0 0 C4 1 4 1 4 1 Z " fill="#000000" transform="translate(191,363)"/>
<path d="M0 0 C0.99 0.33 1.98 0.66 3 1 C2.01 1 1.02 1 0 1 C0 0.67 0 0.34 0 0 Z " fill="#000000" transform="translate(58,360)"/>
<path d="M0 0 C0.99 0.33 1.98 0.66 3 1 C2.01 1 1.02 1 0 1 C0 0.67 0 0.34 0 0 Z " fill="#000000" transform="translate(17,350)"/>
<path d="M0 0 C4 1 4 1 4 1 Z " fill="#000000" transform="translate(198,348)"/>
<path d="M0 0 C1 4 1 4 1 4 Z " fill="#000000" transform="translate(258,343)"/>
<path d="M0 0 C0.99 0.33 1.98 0.66 3 1 C2.01 1 1.02 1 0 1 C0 0.67 0 0.34 0 0 Z " fill="#000000" transform="translate(154,330)"/>
<path d="M0 0 C1 4 1 4 1 4 Z " fill="#000000" transform="translate(41,314)"/>
<path d="M0 0 C1 4 1 4 1 4 Z " fill="#000000" transform="translate(243,310)"/>
<path d="M0 0 C0.99 0.495 0.99 0.495 2 1 C1.67 1.66 1.34 2.32 1 3 C0.67 2.01 0.34 1.02 0 0 Z " fill="#000000" transform="translate(125,310)"/>
<path d="M0 0 C0.99 0.495 0.99 0.495 2 1 C1.67 1.66 1.34 2.32 1 3 C0.67 2.01 0.34 1.02 0 0 Z " fill="#000000" transform="translate(123,307)"/>
<path d="M0 0 C1 4 1 4 1 4 Z " fill="#000000" transform="translate(44,304)"/>
<path d="M0 0 C1 4 1 4 1 4 Z " fill="#000000" transform="translate(111,273)"/>
<path d="M0 0 C1 4 1 4 1 4 Z " fill="#000000" transform="translate(254,260)"/>
<path d="M0 0 C1 4 1 4 1 4 Z " fill="#000000" transform="translate(31,258)"/>
<path d="M0 0 C1 4 1 4 1 4 Z " fill="#000000" transform="translate(253,254)"/>
<path d="M0 0 C4 1 4 1 4 1 Z " fill="#000000" transform="translate(281,253)"/>
<path d="M0 0 C1 4 1 4 1 4 Z " fill="#000000" transform="translate(12,208)"/>
<path d="M0 0 C1 4 1 4 1 4 Z " fill="#000000" transform="translate(9,199)"/>
<path d="M0 0 C1 4 1 4 1 4 Z " fill="#000000" transform="translate(4,181)"/>
<path d="M0 0 C1 4 1 4 1 4 Z " fill="#000000" transform="translate(19,178)"/>
<path d="M0 0 C1 4 1 4 1 4 Z " fill="#000000" transform="translate(256,153)"/>
<path d="M0 0 C1 4 1 4 1 4 Z " fill="#000000" transform="translate(272,152)"/>
<path d="M0 0 C1 4 1 4 1 4 Z " fill="#000000" transform="translate(254,115)"/>
<path d="M0 0 C4 1 4 1 4 1 Z " fill="#000000" transform="translate(242,75)"/>
<path d="M0 0 C0.66 0.33 1.32 0.66 2 1 C1.01 1 0.02 1 -1 1 C-0.67 0.67 -0.34 0.34 0 0 Z " fill="#000000" transform="translate(26,73)"/>
<path d="M0 0 C0.66 0.33 1.32 0.66 2 1 C1.01 1 0.02 1 -1 1 C-0.67 0.67 -0.34 0.34 0 0 Z " fill="#000000" transform="translate(30,70)"/>
<path d="M0 0 C1 4 1 4 1 4 Z " fill="#000000" transform="translate(38,45)"/>
<path d="M0 0 C0.66 0.33 1.32 0.66 2 1 C1.01 1 0.02 1 -1 1 C-0.67 0.67 -0.34 0.34 0 0 Z " fill="#000000" transform="translate(64,31)"/>
<path d="M0 0 C4 1 4 1 4 1 Z " fill="#000000" transform="translate(188,20)"/>
<path d="M0 0 C0.66 0.33 1.32 0.66 2 1 C1.01 1 0.02 1 -1 1 C-0.67 0.67 -0.34 0.34 0 0 Z " fill="#000000" transform="translate(55,20)"/>
<path d="M0 0 C4 1 4 1 4 1 Z " fill="#000000" transform="translate(91,18)"/>
<path d="M0 0 C4 1 4 1 4 1 Z " fill="#000000" transform="translate(95,17)"/>
<path d="M0 0 C4 1 4 1 4 1 Z " fill="#000000" transform="translate(99,16)"/>
<path d="M0 0 C0.66 0.33 1.32 0.66 2 1 C1.01 1 0.02 1 -1 1 C-0.67 0.67 -0.34 0.34 0 0 Z " fill="#000000" transform="translate(66,12)"/>
<path d="M0 0 C4 1 4 1 4 1 Z " fill="#000000" transform="translate(190,4)"/>
<path d="M0 0 C4 1 4 1 4 1 Z " fill="#000000" transform="translate(87,3)"/>
<path d="M0 0 C4 1 4 1 4 1 Z " fill="#000000" transform="translate(92,2)"/>
<path d="M0 0 C4 1 4 1 4 1 Z " fill="#000000" transform="translate(96,1)"/>
<path d="M0 0 C3 1 3 1 3 1 Z " fill="#000000" transform="translate(234,367)"/>
<path d="M0 0 C3 1 3 1 3 1 Z " fill="#000000" transform="translate(238,366)"/>
<path d="M0 0 C3 1 3 1 3 1 Z " fill="#000000" transform="translate(203,365)"/>
<path d="M0 0 C3 1 3 1 3 1 Z " fill="#000000" transform="translate(160,349)"/>
<path d="M0 0 C3 1 3 1 3 1 Z " fill="#000000" transform="translate(193,346)"/>
<path d="M0 0 C3 1 3 1 3 1 Z " fill="#000000" transform="translate(184,343)"/>
<path d="M0 0 C3 1 3 1 3 1 Z " fill="#000000" transform="translate(176,340)"/>
<path d="M0 0 C3 1 3 1 3 1 Z " fill="#000000" transform="translate(151,329)"/>
<path d="M0 0 C3 1 3 1 3 1 Z " fill="#000000" transform="translate(145,326)"/>
<path d="M0 0 C0.66 0.66 1.32 1.32 2 2 C1.34 2 0.68 2 0 2 C0 1.34 0 0.68 0 0 Z " fill="#000000" transform="translate(118,323)"/>
<path d="M0 0 C0.66 0.66 1.32 1.32 2 2 C1.34 2 0.68 2 0 2 C0 1.34 0 0.68 0 0 Z " fill="#000000" transform="translate(115,320)"/>
<path d="" fill="#000000" transform="translate(0,0)"/>
<path d="" fill="#000000" transform="translate(0,0)"/>
<path d="" fill="#000000" transform="translate(0,0)"/>
<path d="" fill="#000000" transform="translate(0,0)"/>
<path d="" fill="#000000" transform="translate(0,0)"/>
<path d="M0 0 C3 1 3 1 3 1 Z " fill="#000000" transform="translate(274,240)"/>
<path d="" fill="#000000" transform="translate(0,0)"/>
<path d="" fill="#000000" transform="translate(0,0)"/>
<path d="" fill="#000000" transform="translate(0,0)"/>
<path d="" fill="#000000" transform="translate(0,0)"/>
<path d="" fill="#000000" transform="translate(0,0)"/>
<path d="" fill="#000000" transform="translate(0,0)"/>
<path d="" fill="#000000" transform="translate(0,0)"/>
<path d="" fill="#000000" transform="translate(0,0)"/>
<path d="" fill="#000000" transform="translate(0,0)"/>
<path d="" fill="#000000" transform="translate(0,0)"/>
<path d="" fill="#000000" transform="translate(0,0)"/>
<path d="" fill="#000000" transform="translate(0,0)"/>
<path d="" fill="#000000" transform="translate(0,0)"/>
<path d="" fill="#000000" transform="translate(0,0)"/>
<path d="" fill="#000000" transform="translate(0,0)"/>
<path d="" fill="#000000" transform="translate(0,0)"/>
<path d="" fill="#000000" transform="translate(0,0)"/>
<path d="" fill="#000000" transform="translate(0,0)"/>
<path d="" fill="#000000" transform="translate(0,0)"/>
<path d="" fill="#000000" transform="translate(0,0)"/>
<path d="" fill="#000000" transform="translate(0,0)"/>
<path d="" fill="#000000" transform="translate(0,0)"/>
<path d="" fill="#000000" transform="translate(0,0)"/>
<path d="M0 0 C0.33 0.66 0.66 1.32 1 2 C0.34 1.67 -0.32 1.34 -1 1 C-0.67 0.67 -0.34 0.34 0 0 Z " fill="#000000" transform="translate(62,33)"/>
<path d="M0 0 C3 1 3 1 3 1 Z " fill="#000000" transform="translate(77,23)"/>
<path d="M0 0 C3 1 3 1 3 1 Z " fill="#000000" transform="translate(74,8)"/>
<path d="M0 0 C3 1 3 1 3 1 Z " fill="#000000" transform="translate(82,5)"/>
<path d="M0 0 C2 1 2 1 2 1 Z " fill="#000000" transform="translate(129,426)"/>
<path d="M0 0 C2 1 2 1 2 1 Z " fill="#000000" transform="translate(126,424)"/>
<path d="M0 0 C2 1 2 1 2 1 Z " fill="#000000" transform="translate(114,416)"/>
<path d="M0 0 C2 1 2 1 2 1 Z " fill="#000000" transform="translate(111,414)"/>
<path d="" fill="#000000" transform="translate(0,0)"/>
<path d="M0 0 C2 1 2 1 2 1 Z " fill="#000000" transform="translate(134,412)"/>
<path d="M0 0 C2 1 2 1 2 1 Z " fill="#000000" transform="translate(108,412)"/>
<path d="M0 0 C2 1 2 1 2 1 Z " fill="#000000" transform="translate(131,410)"/>
<path d="M0 0 C2 1 2 1 2 1 Z " fill="#000000" transform="translate(105,410)"/>
<path d="M0 0 C2 1 2 1 2 1 Z " fill="#000000" transform="translate(102,408)"/>
<path d="" fill="#000000" transform="translate(0,0)"/>
<path d="M0 0 C2 1 2 1 2 1 Z " fill="#000000" transform="translate(122,404)"/>
<path d="M0 0 C2 1 2 1 2 1 Z " fill="#000000" transform="translate(96,404)"/>
<path d="" fill="#000000" transform="translate(0,0)"/>
<path d="M0 0 C2 1 2 1 2 1 Z " fill="#000000" transform="translate(119,402)"/>
<path d="M0 0 C2 1 2 1 2 1 Z " fill="#000000" transform="translate(93,402)"/>
<path d="M0 0 C2 1 2 1 2 1 Z " fill="#000000" transform="translate(116,400)"/>
<path d="M0 0 C2 1 2 1 2 1 Z " fill="#000000" transform="translate(113,398)"/>
<path d="" fill="#000000" transform="translate(0,0)"/>
<path d="M0 0 C2 1 2 1 2 1 Z " fill="#000000" transform="translate(106,393)"/>
<path d="M0 0 C2 1 2 1 2 1 Z " fill="#000000" transform="translate(103,391)"/>
<path d="M0 0 C2 1 2 1 2 1 Z " fill="#000000" transform="translate(77,391)"/>
<path d="" fill="#000000" transform="translate(0,0)"/>
<path d="M0 0 C2 1 2 1 2 1 Z " fill="#000000" transform="translate(97,387)"/>
<path d="M0 0 C2 1 2 1 2 1 Z " fill="#000000" transform="translate(90,382)"/>
<path d="M0 0 C2 1 2 1 2 1 Z " fill="#000000" transform="translate(64,382)"/>
<path d="M0 0 C2 1 2 1 2 1 Z " fill="#000000" transform="translate(87,380)"/>
<path d="M0 0 C2 1 2 1 2 1 Z " fill="#000000" transform="translate(61,380)"/>
<path d="M0 0 C2 1 2 1 2 1 Z " fill="#000000" transform="translate(58,378)"/>
<path d="M0 0 C2 1 2 1 2 1 Z " fill="#000000" transform="translate(81,376)"/>
<path d="M0 0 C2 1 2 1 2 1 Z " fill="#000000" transform="translate(78,374)"/>
<path d="M0 0 C2 1 2 1 2 1 Z " fill="#000000" transform="translate(71,369)"/>
<path d="M0 0 C2 1 2 1 2 1 Z " fill="#000000" transform="translate(45,369)"/>
<path d="M0 0 C2 1 2 1 2 1 Z " fill="#000000" transform="translate(178,367)"/>
<path d="M0 0 C2 1 2 1 2 1 Z " fill="#000000" transform="translate(42,367)"/>
<path d="M0 0 C2 1 2 1 2 1 Z " fill="#000000" transform="translate(180,366)"/>
<path d="M0 0 C2 1 2 1 2 1 Z " fill="#000000" transform="translate(241,365)"/>
<path d="M0 0 C2 1 2 1 2 1 Z " fill="#000000" transform="translate(182,365)"/>
<path d="M0 0 C2 1 2 1 2 1 Z " fill="#000000" transform="translate(65,365)"/>
<path d="M0 0 C2 1 2 1 2 1 Z " fill="#000000" transform="translate(39,365)"/>
<path d="M0 0 C2 1 2 1 2 1 Z " fill="#000000" transform="translate(62,363)"/>
<path d="M0 0 C2 1 2 1 2 1 Z " fill="#000000" transform="translate(246,362)"/>
<path d="M0 0 C2 1 2 1 2 1 Z " fill="#000000" transform="translate(35,362)"/>
<path d="M0 0 C2 1 2 1 2 1 Z " fill="#000000" transform="translate(32,360)"/>
<path d="M0 0 C2 1 2 1 2 1 Z " fill="#000000" transform="translate(55,358)"/>
<path d="M0 0 C2 1 2 1 2 1 Z " fill="#000000" transform="translate(52,356)"/>
<path d="M0 0 C2 1 2 1 2 1 Z " fill="#000000" transform="translate(25,355)"/>
<path d="M0 0 C2 1 2 1 2 1 Z " fill="#000000" transform="translate(49,354)"/>
<path d="M0 0 C2 1 2 1 2 1 Z " fill="#000000" transform="translate(23,354)"/>
<path d="M0 0 C2 1 2 1 2 1 Z " fill="#000000" transform="translate(168,352)"/>
<path d="M0 0 C2 1 2 1 2 1 Z " fill="#000000" transform="translate(20,352)"/>
<path d="M0 0 C2 1 2 1 2 1 Z " fill="#000000" transform="translate(45,351)"/>
<path d="M0 0 C2 1 2 1 2 1 Z " fill="#000000" transform="translate(158,348)"/>
<path d="M0 0 C2 1 2 1 2 1 Z " fill="#000000" transform="translate(196,347)"/>
<path d="M0 0 C2 1 2 1 2 1 Z " fill="#000000" transform="translate(156,347)"/>
<path d="M0 0 C2 1 2 1 2 1 Z " fill="#000000" transform="translate(38,346)"/>
<path d="" fill="#000000" transform="translate(0,0)"/>
<path d="M0 0 C2 1 2 1 2 1 Z " fill="#000000" transform="translate(149,344)"/>
<path d="" fill="#000000" transform="translate(0,0)"/>
<path d="M0 0 C2 1 2 1 2 1 Z " fill="#000000" transform="translate(147,343)"/>
<path d="M0 0 C2 1 2 1 2 1 Z " fill="#000000" transform="translate(34,343)"/>
<path d="M0 0 C2 1 2 1 2 1 Z " fill="#000000" transform="translate(145,342)"/>
<path d="M0 0 C2 1 2 1 2 1 Z " fill="#000000" transform="translate(143,341)"/>
<path d="" fill="#000000" transform="translate(0,0)"/>
<path d="M0 0 C2 1 2 1 2 1 Z " fill="#000000" transform="translate(141,340)"/>
<path d="M0 0 C2 1 2 1 2 1 Z " fill="#000000" transform="translate(174,339)"/>
<path d="" fill="#000000" transform="translate(0,0)"/>
<path d="M0 0 C2 1 2 1 2 1 Z " fill="#000000" transform="translate(172,338)"/>
<path d="M0 0 C2 1 2 1 2 1 Z " fill="#000000" transform="translate(137,338)"/>
<path d="M0 0 C2 1 2 1 2 1 Z " fill="#000000" transform="translate(169,337)"/>
<path d="" fill="#000000" transform="translate(0,0)"/>
<path d="M0 0 C2 1 2 1 2 1 Z " fill="#000000" transform="translate(167,336)"/>
<path d="M0 0 C2 1 2 1 2 1 Z " fill="#000000" transform="translate(134,336)"/>
<path d="M0 0 C2 1 2 1 2 1 Z " fill="#000000" transform="translate(165,335)"/>
<path d="M0 0 C2 1 2 1 2 1 Z " fill="#000000" transform="translate(132,335)"/>
<path d="M0 0 C2 1 2 1 2 1 Z " fill="#000000" transform="translate(162,334)"/>
<path d="" fill="#000000" transform="translate(0,0)"/>
<path d="M0 0 C2 1 2 1 2 1 Z " fill="#000000" transform="translate(160,333)"/>
<path d="M0 0 C2 1 2 1 2 1 Z " fill="#000000" transform="translate(158,332)"/>
<path d="M0 0 C2 1 2 1 2 1 Z " fill="#000000" transform="translate(125,330)"/>
<path d="" fill="#000000" transform="translate(0,0)"/>
<path d="M0 0 C2 1 2 1 2 1 Z " fill="#000000" transform="translate(148,327)"/>
<path d="" fill="#000000" transform="translate(0,0)"/>
<path d="" fill="#000000" transform="translate(0,0)"/>
<path d="M0 0 C2 1 2 1 2 1 Z " fill="#000000" transform="translate(142,324)"/>
<path d="M0 0 C2 1 2 1 2 1 Z " fill="#000000" transform="translate(140,323)"/>
<path d="M0 0 C2 1 2 1 2 1 Z " fill="#000000" transform="translate(137,321)"/>
<path d="" fill="#000000" transform="translate(0,0)"/>
<path d="M0 0 C2 1 2 1 2 1 Z " fill="#000000" transform="translate(135,320)"/>
<path d="" fill="#000000" transform="translate(0,0)"/>
<path d="M0 0 C2 1 2 1 2 1 Z " fill="#000000" transform="translate(132,318)"/>
<path d="" fill="#000000" transform="translate(0,0)"/>
<path d="" fill="#000000" transform="translate(0,0)"/>
<path d="M0 0 C2 1 2 1 2 1 Z " fill="#000000" transform="translate(234,292)"/>
<path d="M0 0 C2 1 2 1 2 1 Z " fill="#000000" transform="translate(268,286)"/>
<path d="" fill="#000000" transform="translate(0,0)"/>
<path d="" fill="#000000" transform="translate(0,0)"/>
<path d="" fill="#000000" transform="translate(0,0)"/>
<path d="M0 0 C2 1 2 1 2 1 Z " fill="#000000" transform="translate(95,261)"/>
<path d="" fill="#000000" transform="translate(0,0)"/>
<path d="" fill="#000000" transform="translate(0,0)"/>
<path d="" fill="#000000" transform="translate(0,0)"/>
<path d="M0 0 C2 1 2 1 2 1 Z " fill="#000000" transform="translate(263,244)"/>
<path d="M0 0 C2 1 2 1 2 1 Z " fill="#000000" transform="translate(266,243)"/>
<path d="" fill="#000000" transform="translate(0,0)"/>
<path d="M0 0 C2 1 2 1 2 1 Z " fill="#000000" transform="translate(277,239)"/>
<path d="" fill="#000000" transform="translate(0,0)"/>
<path d="" fill="#000000" transform="translate(0,0)"/>
<path d="" fill="#000000" transform="translate(0,0)"/>
<path d="" fill="#000000" transform="translate(0,0)"/>
<path d="" fill="#000000" transform="translate(0,0)"/>
<path d="" fill="#000000" transform="translate(0,0)"/>
<path d="" fill="#000000" transform="translate(0,0)"/>
<path d="" fill="#000000" transform="translate(0,0)"/>
<path d="" fill="#000000" transform="translate(0,0)"/>
<path d="" fill="#000000" transform="translate(0,0)"/>
<path d="" fill="#000000" transform="translate(0,0)"/>
<path d="" fill="#000000" transform="translate(0,0)"/>
<path d="" fill="#000000" transform="translate(0,0)"/>
<path d="" fill="#000000" transform="translate(0,0)"/>
<path d="" fill="#000000" transform="translate(0,0)"/>
<path d="" fill="#000000" transform="translate(0,0)"/>
<path d="M0 0 C2 1 2 1 2 1 Z " fill="#000000" transform="translate(51,77)"/>
<path d="" fill="#000000" transform="translate(0,0)"/>
<path d="M0 0 C2 1 2 1 2 1 Z " fill="#000000" transform="translate(248,73)"/>
<path d="" fill="#000000" transform="translate(0,0)"/>
<path d="M0 0 C2 1 2 1 2 1 Z " fill="#000000" transform="translate(32,69)"/>
<path d="" fill="#000000" transform="translate(0,0)"/>
<path d="M0 0 C2 1 2 1 2 1 Z " fill="#000000" transform="translate(68,28)"/>
<path d="M0 0 C2 1 2 1 2 1 Z " fill="#000000" transform="translate(71,26)"/>
<path d="M0 0 C2 1 2 1 2 1 Z " fill="#000000" transform="translate(73,25)"/>
<path d="M0 0 C2 1 2 1 2 1 Z " fill="#000000" transform="translate(75,24)"/>
<path d="M0 0 C2 1 2 1 2 1 Z " fill="#000000" transform="translate(80,22)"/>
<path d="M0 0 C2 1 2 1 2 1 Z " fill="#000000" transform="translate(82,21)"/>
<path d="M0 0 C2 1 2 1 2 1 Z " fill="#000000" transform="translate(231,20)"/>
<path d="M0 0 C2 1 2 1 2 1 Z " fill="#000000" transform="translate(233,19)"/>
<path d="M0 0 C2 1 2 1 2 1 Z " fill="#000000" transform="translate(235,18)"/>
<path d="M0 0 C2 1 2 1 2 1 Z " fill="#000000" transform="translate(237,17)"/>
<path d="M0 0 C2 1 2 1 2 1 Z " fill="#000000" transform="translate(63,14)"/>
<path d="M0 0 C2 1 2 1 2 1 Z " fill="#000000" transform="translate(68,11)"/>
<path d="M0 0 C2 1 2 1 2 1 Z " fill="#000000" transform="translate(70,10)"/>
<path d="M0 0 C2 1 2 1 2 1 Z " fill="#000000" transform="translate(72,9)"/>
<path d="M0 0 C2 1 2 1 2 1 Z " fill="#000000" transform="translate(228,5)"/>
<path d="M0 0 C2 1 2 1 2 1 Z " fill="#000000" transform="translate(230,4)"/>
<path d="M0 0 C2 1 2 1 2 1 Z " fill="#000000" transform="translate(85,4)"/>
<path d="M0 0 C2 1 2 1 2 1 Z " fill="#000000" transform="translate(232,3)"/>
<path d="" fill="#000000" transform="translate(0,0)"/>
<path d="" fill="#000000" transform="translate(0,0)"/>
<path d="" fill="#000000" transform="translate(0,0)"/>
<path d="" fill="#000000" transform="translate(0,0)"/>
<path d="" fill="#000000" transform="translate(0,0)"/>
<path d="" fill="#000000" transform="translate(0,0)"/>
<path d="" fill="#000000" transform="translate(0,0)"/>
<path d="" fill="#000000" transform="translate(0,0)"/>
<path d="" fill="#000000" transform="translate(0,0)"/>
<path d="" fill="#000000" transform="translate(0,0)"/>
<path d="" fill="#000000" transform="translate(0,0)"/>
<path d="" fill="#000000" transform="translate(0,0)"/>
<path d="" fill="#000000" transform="translate(0,0)"/>
<path d="" fill="#000000" transform="translate(0,0)"/>
<path d="" fill="#000000" transform="translate(0,0)"/>
<path d="" fill="#000000" transform="translate(0,0)"/>
<path d="" fill="#000000" transform="translate(0,0)"/>
<path d="" fill="#000000" transform="translate(0,0)"/>
<path d="" fill="#000000" transform="translate(0,0)"/>
<path d="" fill="#000000" transform="translate(0,0)"/>
<path d="" fill="#000000" transform="translate(0,0)"/>
<path d="" fill="#000000" transform="translate(0,0)"/>
<path d="" fill="#000000" transform="translate(0,0)"/>
<path d="" fill="#000000" transform="translate(0,0)"/>
<path d="" fill="#000000" transform="translate(0,0)"/>
<path d="" fill="#000000" transform="translate(0,0)"/>
<path d="" fill="#000000" transform="translate(0,0)"/>
<path d="" fill="#000000" transform="translate(0,0)"/>
<path d="" fill="#000000" transform="translate(0,0)"/>
<path d="" fill="#000000" transform="translate(0,0)"/>
<path d="" fill="#000000" transform="translate(0,0)"/>
<path d="" fill="#000000" transform="translate(0,0)"/>
<path d="" fill="#000000" transform="translate(0,0)"/>
<path d="" fill="#000000" transform="translate(0,0)"/>
<path d="" fill="#000000" transform="translate(0,0)"/>
<path d="" fill="#000000" transform="translate(0,0)"/>
<path d="" fill="#000000" transform="translate(0,0)"/>
<path d="" fill="#000000" transform="translate(0,0)"/>
<path d="" fill="#000000" transform="translate(0,0)"/>
<path d="" fill="#000000" transform="translate(0,0)"/>
<path d="" fill="#000000" transform="translate(0,0)"/>
<path d="" fill="#000000" transform="translate(0,0)"/>
<path d="" fill="#000000" transform="translate(0,0)"/>
<path d="" fill="#000000" transform="translate(0,0)"/>
<path d="" fill="#000000" transform="translate(0,0)"/>
<path d="" fill="#000000" transform="translate(0,0)"/>
<path d="" fill="#000000" transform="translate(0,0)"/>
<path d="" fill="#000000" transform="translate(0,0)"/>
<path d="" fill="#000000" transform="translate(0,0)"/>
<path d="" fill="#000000" transform="translate(0,0)"/>
<path d="" fill="#000000" transform="translate(0,0)"/>
<path d="" fill="#000000" transform="translate(0,0)"/>
<path d="" fill="#000000" transform="translate(0,0)"/>
<path d="" fill="#000000" transform="translate(0,0)"/>
<path d="" fill="#000000" transform="translate(0,0)"/>
<path d="" fill="#000000" transform="translate(0,0)"/>
<path d="" fill="#000000" transform="translate(0,0)"/>
<path d="" fill="#000000" transform="translate(0,0)"/>
<path d="" fill="#000000" transform="translate(0,0)"/>
<path d="" fill="#000000" transform="translate(0,0)"/>
<path d="" fill="#000000" transform="translate(0,0)"/>
<path d="" fill="#000000" transform="translate(0,0)"/>
<path d="" fill="#000000" transform="translate(0,0)"/>
<path d="" fill="#000000" transform="translate(0,0)"/>
<path d="" fill="#000000" transform="translate(0,0)"/>
<path d="" fill="#000000" transform="translate(0,0)"/>
<path d="" fill="#000000" transform="translate(0,0)"/>
<path d="" fill="#000000" transform="translate(0,0)"/>
<path d="" fill="#000000" transform="translate(0,0)"/>
<path d="" fill="#000000" transform="translate(0,0)"/>
<path d="" fill="#000000" transform="translate(0,0)"/>
<path d="" fill="#000000" transform="translate(0,0)"/>
<path d="" fill="#000000" transform="translate(0,0)"/>
<path d="" fill="#000000" transform="translate(0,0)"/>
<path d="" fill="#000000" transform="translate(0,0)"/>
<path d="" fill="#000000" transform="translate(0,0)"/>
<path d="" fill="#000000" transform="translate(0,0)"/>
<path d="" fill="#000000" transform="translate(0,0)"/>
<path d="" fill="#000000" transform="translate(0,0)"/>
<path d="" fill="#000000" transform="translate(0,0)"/>
<path d="" fill="#000000" transform="translate(0,0)"/>
<path d="" fill="#000000" transform="translate(0,0)"/>
<path d="" fill="#000000" transform="translate(0,0)"/>
<path d="" fill="#000000" transform="translate(0,0)"/>
<path d="" fill="#000000" transform="translate(0,0)"/>
<path d="" fill="#000000" transform="translate(0,0)"/>
<path d="" fill="#000000" transform="translate(0,0)"/>
<path d="" fill="#000000" transform="translate(0,0)"/>
<path d="" fill="#000000" transform="translate(0,0)"/>
<path d="" fill="#000000" transform="translate(0,0)"/>
<path d="" fill="#000000" transform="translate(0,0)"/>
<path d="" fill="#000000" transform="translate(0,0)"/>
<path d="" fill="#000000" transform="translate(0,0)"/>
<path d="" fill="#000000" transform="translate(0,0)"/>
<path d="" fill="#000000" transform="translate(0,0)"/>
<path d="" fill="#000000" transform="translate(0,0)"/>
<path d="" fill="#000000" transform="translate(0,0)"/>
<path d="" fill="#000000" transform="translate(0,0)"/>
<path d="" fill="#000000" transform="translate(0,0)"/>
<path d="" fill="#000000" transform="translate(0,0)"/>
<path d="" fill="#000000" transform="translate(0,0)"/>
<path d="" fill="#000000" transform="translate(0,0)"/>
<path d="" fill="#000000" transform="translate(0,0)"/>
<path d="" fill="#000000" transform="translate(0,0)"/>
<path d="" fill="#000000" transform="translate(0,0)"/>
<path d="" fill="#000000" transform="translate(0,0)"/>
<path d="" fill="#000000" transform="translate(0,0)"/>
<path d="" fill="#000000" transform="translate(0,0)"/>
<path d="" fill="#000000" transform="translate(0,0)"/>
<path d="" fill="#000000" transform="translate(0,0)"/>
<path d="" fill="#000000" transform="translate(0,0)"/>
<path d="" fill="#000000" transform="translate(0,0)"/>
<path d="" fill="#000000" transform="translate(0,0)"/>
<path d="" fill="#000000" transform="translate(0,0)"/>
<path d="" fill="#000000" transform="translate(0,0)"/>
<path d="" fill="#000000" transform="translate(0,0)"/>
<path d="" fill="#000000" transform="translate(0,0)"/>
<path d="" fill="#000000" transform="translate(0,0)"/>
<path d="" fill="#000000" transform="translate(0,0)"/>
<path d="" fill="#000000" transform="translate(0,0)"/>
<path d="" fill="#000000" transform="translate(0,0)"/>
<path d="" fill="#000000" transform="translate(0,0)"/>
<path d="" fill="#000000" transform="translate(0,0)"/>
<path d="" fill="#000000" transform="translate(0,0)"/>
<path d="" fill="#000000" transform="translate(0,0)"/>
<path d="" fill="#000000" transform="translate(0,0)"/>
<path d="" fill="#000000" transform="translate(0,0)"/>
<path d="" fill="#000000" transform="translate(0,0)"/>
<path d="" fill="#000000" transform="translate(0,0)"/>
<path d="" fill="#000000" transform="translate(0,0)"/>
<path d="" fill="#000000" transform="translate(0,0)"/>
<path d="" fill="#000000" transform="translate(0,0)"/>
<path d="" fill="#000000" transform="translate(0,0)"/>
<path d="" fill="#000000" transform="translate(0,0)"/>
<path d="" fill="#000000" transform="translate(0,0)"/>
<path d="" fill="#000000" transform="translate(0,0)"/>
<path d="" fill="#000000" transform="translate(0,0)"/>
<path d="" fill="#000000" transform="translate(0,0)"/>
<path d="" fill="#000000" transform="translate(0,0)"/>
<path d="" fill="#000000" transform="translate(0,0)"/>
<path d="" fill="#000000" transform="translate(0,0)"/>
<path d="" fill="#000000" transform="translate(0,0)"/>
<path d="" fill="#000000" transform="translate(0,0)"/>
<path d="" fill="#000000" transform="translate(0,0)"/>
<path d="" fill="#000000" transform="translate(0,0)"/>
<path d="" fill="#000000" transform="translate(0,0)"/>
<path d="" fill="#000000" transform="translate(0,0)"/>
<path d="" fill="#000000" transform="translate(0,0)"/>
<path d="" fill="#000000" transform="translate(0,0)"/>
<path d="" fill="#000000" transform="translate(0,0)"/>
<path d="" fill="#000000" transform="translate(0,0)"/>
<path d="" fill="#000000" transform="translate(0,0)"/>
<path d="" fill="#000000" transform="translate(0,0)"/>
<path d="" fill="#000000" transform="translate(0,0)"/>
<path d="" fill="#000000" transform="translate(0,0)"/>
<path d="" fill="#000000" transform="translate(0,0)"/>
<path d="" fill="#000000" transform="translate(0,0)"/>
<path d="" fill="#000000" transform="translate(0,0)"/>
<path d="" fill="#000000" transform="translate(0,0)"/>
<path d="" fill="#000000" transform="translate(0,0)"/>
<path d="" fill="#000000" transform="translate(0,0)"/>
<path d="" fill="#000000" transform="translate(0,0)"/>
<path d="" fill="#000000" transform="translate(0,0)"/>
<path d="" fill="#000000" transform="translate(0,0)"/>
<path d="" fill="#000000" transform="translate(0,0)"/>
<path d="" fill="#000000" transform="translate(0,0)"/>
<path d="" fill="#000000" transform="translate(0,0)"/>
<path d="" fill="#000000" transform="translate(0,0)"/>
<path d="" fill="#000000" transform="translate(0,0)"/>
<path d="" fill="#000000" transform="translate(0,0)"/>
<path d="" fill="#000000" transform="translate(0,0)"/>
<path d="" fill="#000000" transform="translate(0,0)"/>
<path d="" fill="#000000" transform="translate(0,0)"/>
<path d="" fill="#000000" transform="translate(0,0)"/>
<path d="" fill="#000000" transform="translate(0,0)"/>
<path d="" fill="#000000" transform="translate(0,0)"/>
<path d="" fill="#000000" transform="translate(0,0)"/>
<path d="" fill="#000000" transform="translate(0,0)"/>
<path d="" fill="#000000" transform="translate(0,0)"/>
<path d="" fill="#000000" transform="translate(0,0)"/>
<path d="" fill="#000000" transform="translate(0,0)"/>
<path d="" fill="#000000" transform="translate(0,0)"/>
<path d="" fill="#000000" transform="translate(0,0)"/>
<path d="" fill="#000000" transform="translate(0,0)"/>
<path d="" fill="#000000" transform="translate(0,0)"/>
<path d="" fill="#000000" transform="translate(0,0)"/>
<path d="" fill="#000000" transform="translate(0,0)"/>
<path d="" fill="#000000" transform="translate(0,0)"/>
<path d="" fill="#000000" transform="translate(0,0)"/>
<path d="" fill="#000000" transform="translate(0,0)"/>
<path d="" fill="#000000" transform="translate(0,0)"/>
<path d="" fill="#000000" transform="translate(0,0)"/>
<path d="" fill="#000000" transform="translate(0,0)"/>
<path d="" fill="#000000" transform="translate(0,0)"/>
<path d="" fill="#000000" transform="translate(0,0)"/>
<path d="" fill="#000000" transform="translate(0,0)"/>
<path d="" fill="#000000" transform="translate(0,0)"/>
<path d="" fill="#000000" transform="translate(0,0)"/>
<path d="" fill="#000000" transform="translate(0,0)"/>
<path d="" fill="#000000" transform="translate(0,0)"/>
<path d="" fill="#000000" transform="translate(0,0)"/>
<path d="" fill="#000000" transform="translate(0,0)"/>
<path d="" fill="#000000" transform="translate(0,0)"/>
</svg>
